
<svg version="1.0" xmlns="http://www.w3.org/2000/svg"
 width="767.000000pt" height="453.000000pt" viewBox="0 0 767.000000 453.000000"
 preserveAspectRatio="xMidYMid meet">

<g transform="translate(0.000000,453.000000) scale(0.100000,-0.100000)"
fill="#000000" stroke="none">
<path d="M3300 3207 l0 -523 -127 -13 c-368 -38 -805 -138 -1161 -267 -125
-45 -384 -155 -379 -161 2 -1 67 20 145 47 258 90 595 174 902 224 143 23 461
61 573 68 l47 3 0 -343 0 -344 108 -131 107 -132 3 483 2 482 105 0 105 0 0
-353 0 -353 103 -125 102 -126 3 479 2 479 108 -3 107 -3 5 -356 5 -355 100
-123 100 -122 5 471 c3 258 7 471 10 472 13 4 231 -15 370 -33 415 -52 809
-141 1142 -257 163 -58 155 -55 138 -44 -33 22 -302 132 -430 176 -343 120
-783 217 -1150 253 l-75 8 -5 436 -5 436 -102 87 -103 87 0 -510 c0 -339 -3
-512 -10 -516 -6 -4 -55 -3 -110 1 l-100 7 0 422 0 422 -102 86 -103 86 -3
-509 -2 -510 -38 0 c-20 0 -67 -3 -104 -7 l-68 -6 0 426 0 426 -105 91 c-58
49 -108 90 -110 90 -3 0 -5 -235 -5 -523z"/>
<path d="M1000 1278 c0 -7 35 -115 77 -240 l78 -228 47 0 46 0 30 83 c16 45
39 112 51 150 13 37 24 67 25 67 2 0 27 -67 56 -150 l52 -150 47 0 46 0 78
228 c42 125 77 233 77 240 0 9 -14 12 -52 10 l-52 -3 -47 -155 c-26 -85 -49
-157 -49 -160 -1 -3 -26 67 -54 155 l-52 160 -47 3 -46 3 -51 -161 c-29 -89
-53 -160 -56 -158 -2 2 -24 70 -48 151 -25 81 -48 152 -51 157 -9 15 -105 13
-105 -2z"/>
<path d="M4070 1051 l0 -241 143 0 c128 0 147 2 187 23 52 25 70 55 70 113 0
45 -26 88 -61 99 l-21 7 22 23 c35 37 44 90 23 133 -31 63 -68 76 -225 80
l-138 4 0 -241z m260 125 c18 -22 8 -59 -20 -73 -14 -7 -51 -13 -82 -13 l-58
0 0 50 0 50 74 0 c52 0 77 -4 86 -14z m-1 -177 c42 -15 53 -55 21 -81 -17 -14
-40 -18 -101 -18 l-79 0 0 55 0 55 64 0 c34 0 77 -5 95 -11z"/>
<path d="M1820 1015 l0 -215 165 0 165 0 0 50 0 50 -115 0 -115 0 0 35 0 35
100 0 100 0 0 45 0 44 -97 3 -98 3 0 35 0 35 108 3 107 3 0 44 0 45 -160 0
-160 0 0 -215z"/>
<path d="M2335 1048 c-43 -101 -84 -198 -92 -215 l-13 -33 53 0 53 0 21 50 22
51 82 -3 81 -3 18 -45 c17 -44 18 -45 69 -48 28 -2 51 1 51 5 0 4 -39 101 -87
216 l-87 207 -46 0 -47 0 -78 -182z"/>
<path d="M2780 1015 l0 -215 155 0 155 0 0 50 0 50 -105 0 -105 0 0 165 0 165
-50 0 -50 0 0 -215z"/>
<path d="M3110 1180 l0 -50 60 0 60 0 0 -165 0 -165 50 0 50 0 0 165 0 165 65
0 65 0 0 50 0 50 -175 0 -175 0 0 -50z"/>
<path d="M3560 1015 l0 -215 50 0 50 0 0 85 0 85 80 0 80 0 0 -85 0 -85 50 0
50 0 0 215 0 215 -50 0 -49 0 -3 -82 -3 -83 -77 -3 -78 -3 0 86 0 85 -50 0
-50 0 0 -215z"/>
<path d="M4610 1015 l0 -215 50 0 50 0 0 70 0 70 30 0 c26 0 36 -9 76 -70 l47
-70 58 0 c33 0 59 3 59 6 0 4 -20 35 -45 70 -25 34 -45 66 -45 69 0 4 13 19
29 34 57 53 60 153 6 206 -33 34 -86 45 -207 45 l-108 0 0 -215z"/>
<path d="M5090 1015 l0 -215 50 0 50 0 0 215 0 215 -50 0 -50 0 0 -215z"/>
<path d="M5330 1016 l0 -216 93 0 c155 0 239 38 278 125 34 74 19 176 -34 233
-47 51 -94 66 -219 70 l-118 4 0 -216z m249 83 c18 -17 31 -42 32 -57 5 -101
-33 -142 -131 -142 l-50 0 0 115 0 115 59 0 c53 0 63 -3 90 -31z"/>
<path d="M5945 1213 c-44 -23 -84 -63 -107 -107 -31 -60 -23 -161 17 -217 64
-91 195 -117 306 -61 l54 27 3 98 3 97 -96 0 -95 0 0 -45 0 -45 45 0 c41 0 45
-2 45 -25 0 -32 -39 -49 -93 -42 -48 6 -84 39 -98 88 -33 107 81 196 178 139
l38 -22 33 38 c31 36 32 39 15 52 -57 44 -188 57 -248 25z"/>
<path d="M6350 1015 l0 -215 163 2 162 3 0 45 0 45 -112 3 -113 3 0 34 0 35
100 0 100 0 0 45 0 45 -100 0 -100 0 0 40 0 40 110 0 110 0 0 45 0 45 -160 0
-160 0 0 -215z"/>
</g>
</svg>
